DataType=double
version=3
OpenSimVersion=4.4-2022-07-23-0e9fedc
endheader
time	Glut_Max_l	Glut_Med_l	Rect_Fem_l	Vast_Lat_l	Bice_Fem_l	Tibi_Ant_l	Gast_Med_l	Sol_l	Gast_Lat_l	Pero_Lon_l	Glut_Max_r	Glut_Med_r	Rect_Fem_r	Vast_Lat_r	Bice_Fem_r	Tibi_Ant_r	Gast_Med_r	Sol_r	Gast_Lat_r	Pero_Lon_r
6.91	0.248204847937748	0.7207112903252201	0.1973846642055167	0.5161678272541416	0.09654664013542651	0.0261725885573781	0.2933378188148406	0.04736241203042606	0.09169052914150871	0.3007492281963479	0.1227447692885597	0.1108146943671328	0.05350879704956094	0.04871673687179121	0.007789920361231816	0.2163916382562445	0.07702267761835463	0.1495036722193163	0.06907612805567441	0.1866803888248614
6.911	0.2464819433117864	0.7139583408182397	0.1959885416708107	0.5140317950970984	0.09659707006583892	0.02652645044183092	0.2932668582292867	0.04748643651428835	0.09138894704350933	0.3041221080756933	0.1227673216271464	0.1118082563864925	0.05275773682600698	0.04871463809964898	0.006886886678295397	0.2144248789084001	0.07684548878660738	0.149868128924701	0.0693689000966304	0.1870444403036474
6.912000000000001	0.2447915395221726	0.707215448733213	0.1945795714244611	0.5118698975488606	0.09664960484723213	0.02689861795797848	0.2931894358463228	0.0476118970463263	0.09109328859213839	0.3074820428821379	0.1227924780795403	0.1128142764957321	0.05201739947831006	0.04871066120468734	0.006011958762789962	0.2124387402588572	0.0766628611141449	0.1502253161954232	0.06965739160819411	0.1874060675451296
6.913	0.2431344979484243	0.7004875065439015	0.1931598474125804	0.5096840782523786	0.09670443027094353	0.02728810442880798	0.2931052195444614	0.0477386239869427	0.09080382586910739	0.3108235251965336	0.1228201507060134	0.1138324070374758	0.0512881368963813	0.04870476948116316	0.005166856279611184	0.2104346690795151	0.07647492239051215	0.1505756303904855	0.06994116137311925	0.1877652249776705
6.914000000000001	0.2415116574192781	0.6937793560058664	0.1917314943380498	0.5074762636906396	0.09676172695722916	0.02769391978812878	0.2930138953291911	0.04786644761808495	0.09052081984667386	0.31414112998588	0.1228502458671248	0.1148622723559524	0.05057028715250103	0.04869693073725239	0.004353312644657032	0.2084140873312182	0.07628180446673273	0.1509194505668709	0.07021978634349429	0.1881218820813422
6.915	0.2399238338350878	0.6870957845274335	0.1902966653547677	0.5052483598371431	0.09682166996621207	0.02811507168702115	0.2929151677237456	0.04799519844772537	0.0902445202999049	0.3174295204572371	0.1228826642150928	0.1159034687061445	0.04986417422832665	0.04868711738713387	0.003573073613687224	0.2063783914050866	0.07608364304110461	0.1512571374726819	0.07049286181245845	0.188476022696189
6.916	0.238371819826143	0.6804415216557118	0.1888575397081438	0.5030022489952847	0.09688442843632597	0.02855056658124267	0.2928087601186911	0.04812470751165441	0.08997516573598009	0.3206834536866599	0.1229173006918914	0.1169555642237376	0.04917010777490767	0.04867530653587293	0.002827895818907425	0.2043289514516128	0.07588057744499825	0.1515890325991136	0.07076000155191649	0.1888276442816217
6.917	0.236856384445725	0.6738212356758807	0.1874163203265607	0.5007397868347606	0.09695016525203319	0.02899941079871746	0.2926944150795771	0.04825480667148372	0.08971298333979617	0.3238977860212859	0.1229540445345914	0.1180180989571042	0.04848838290548508	0.04866148005752061	0.0021195452536599	0.2022671107933731	0.07567275042889639	0.1519154572926985	0.07102083791683643	0.1891767571265503
6.918	0.2353782728963633	0.6672395303200577	0.1859752313686219	0.4984627996314669	0.09701903674242711	0.02946061158629106	0.2925718946121605	0.04838532890782654	0.08945818893505574	0.327067478253557	0.1229927792887897	0.1190905849624738	0.04781928002068154	0.048645624666859	0.001449795705643376	0.2001941854171932	0.07546030794884567	0.152236711929221	0.07127502191677197	0.1895233835105532
6.919	0.2339382062875324	0.660700941580311	0.1845365157311132	0.4961730817156586	0.09709119241214928	0.02993317813505434	0.2924409803847893	0.04851610860773849	0.08921098695992991	0.3301876005677301	0.1230333828312225	0.1201725064633276	0.04716306466553542	0.04862773198518523	0.0008204271391371097	0.1981114635417151	0.07524339895337877	0.1525530751506966	0.0715222232552486	0.1898675568174265
6.92	0.232536881422933	0.6542099346191375	0.1831024325226521	0.4938723931314152	0.09716677470587018	0.03041612258374638	0.292301473907583	0.04864698184564004	0.08897157045631857	0.3332533372600113	0.123075727402792	0.1212633200748833	0.04651998741771273	0.04860779860044412	0.0002332240267713925	0.1960202052564329	0.0750221751708678	0.1528648031667523	0.07176213033764271	0.1902093206036015
6.921	0.2311749706154721	0.6477709007701195	0.181675254507886	0.4915624575087448	0.09724591880740392	0.03090846099999302	0.2921531966683951	0.04877778665709281	0.08874012107171421	0.3362599912343078	0.1231196796533218	0.1223624550943033	0.04589028380614747	0.04858582612190981	-0.0003100263685465508	0.1939216422282795	0.07479679089727291	0.1531721291216177	0.07199445024821717	0.1905487276249667
6.922000000000001	0.2298531215280157	0.6413881546212108	0.1802572655268269	0.4892449601480299	0.09732875247434206	0.0314092143393407	0.2919959902263575	0.04890836330495338	0.08851680907270025	0.3392029882755186	0.123165100699401	0.1234693138569858	0.04527417425930149	0.04856182122949716	-0.0008075357608883488	0.1918169774717889	0.07456740278440983	0.1534752625277891	0.07221890869707645	0.1908858388265123
6.923	0.2285719570379108	0.6350659311728034	0.1788507578935788	0.4869215463150203	0.09741539590888217	0.03191740938214906	0.2918297162649066	0.04903855453756338	0.08830179336913993	0.3420778811017308	0.1232118461966662	0.1245832721590057	0.0446718640821866	0.04853579571766582	-0.001257516657025509	0.1897073851787998	0.07433416962916516	0.1537743887673865	0.07243524993796692	0.1912207222998743
6.924	0.2273320751231521	0.6288083830624009	0.1774580297783517	0.4845938197431942	0.09750596166528511	0.03243207964842305	0.2916542566071647	0.04916820583873796	0.08809522154809783	0.3448803531960237	0.1232597664277461	0.1257036797454722	0.04408354346123827	0.04850776653377987	-0.001658184219821724	0.1875940106036632	0.07409725216442953	0.1540696686623306	0.07264323665802329	0.1915534522141941
6.925000000000001	0.2261340487678748	0.6226195778477471	0.1760813825762883	0.4822633413389782	0.09760055459411904	0.03295226629064062	0.2914695131971402	0.04929716566938859	0.08789722991647091	0.347606222417989	0.1233087064068836	0.1268298608642603	0.0435093874960726	0.0484777558107273	-0.002007758178393301	0.1854779699998988	0.07385681285276609	0.1543612381146553	0.07284264984067371	0.1918841077256957
6.926	0.2249784258845307	0.616503495340914	0.1747231182662597	0.4799316280840026	0.09769927182316752	0.03347701896459104	0.2912754080504102	0.04942528570067186	0.08770794355119903	0.3502514443945214	0.1233585060019966	0.1279611148842906	0.04294955625710662	0.04844579089360659	-0.002304464784007658	0.1833603506041781	0.07361301568391369	0.1546492078183854	0.07303328860291924	0.1922127718711842
